<?xml version="1.0" encoding="UTF-8"?><svg id="Layer_2" xmlns="http://www.w3.org/2000/svg" viewBox="0 0 1200 248.44"><g id="horizontal"><path d="M580.88,84.94v79.51h-18.49v-32.78h-48.07v32.78h-18.49v-79.51h18.49v31.01h48.06v-31.01h18.5ZM676.53,84.94h21.71l-39.54,46.51v33h-18.49v-33l-39.65-46.51h22.26l26.91,31.45,26.79-31.45ZM717.91,84.94h18.49v63.68h53.71v15.83h-72.2v-79.51ZM870.48,84.94l39.54,79.51h-20.05l-8.41-17.05h-43.63l-8.41,17.05h-19.71l39.74-79.51h20.93ZM845.45,132.11h28.68l-14.29-29.01-14.4,29.01ZM1013.52,164.44h-16.28l-49.62-55.92v55.92h-17.94v-79.51h18.72l47.18,53.26v-53.26h17.94v79.51ZM1044.83,84.9h41.45c28.42,0,46.24,15.6,46.24,40s-17.83,40-46.24,40h-41.45v-80ZM1085.83,148.89c17.24,0,27.32-9.47,27.32-23.99s-10.06-24-27.42-24h-22.89v48h23ZM1163.63,88.62v14.81h-4.3v-14.81h-8.04v-3.68h20.35v3.68h-8.01ZM1186.07,103.43l-6.26-14.24v14.24h-4.2v-18.49h6.49l5.76,13.24,5.75-13.24h6.39v18.49h-4.17v-14.24l-6.29,14.24h-3.47Z" style="fill:#fff;"/><polygon points="224.29 0 153.27 124.18 235.52 124.18 306.54 0 224.29 0" style="fill:#6e33ff;"/><polygon points="71.02 124.2 0 248.37 82.25 248.37 153.27 124.2 71.02 124.2" style="fill:#f9c947;"/><polygon points="235.6 124.26 164.58 248.44 246.84 248.44 317.85 124.26 235.6 124.26" style="fill:#52a1ff;"/><polygon points="388.88 .08 317.85 124.26 400.11 124.26 471.14 .08 388.88 .08" style="fill:#03eac1;"/></g></svg>